<?xml version="1.0" encoding="UTF-8" standalone="no"?>
<!-- Created with Inkscape (http://www.inkscape.org/) -->

<svg
   xmlns:dc="http://purl.org/dc/elements/1.1/"
   xmlns:cc="http://creativecommons.org/ns#"
   xmlns:rdf="http://www.w3.org/1999/02/22-rdf-syntax-ns#"
   xmlns:svg="http://www.w3.org/2000/svg"
   xmlns="http://www.w3.org/2000/svg"
   xmlns:sodipodi="http://sodipodi.sourceforge.net/DTD/sodipodi-0.dtd"
   xmlns:inkscape="http://www.inkscape.org/namespaces/inkscape"
   version="1.1"
   id="svg2"
   xml:space="preserve"
   width="328.81332"
   height="96.333336"
   viewBox="0 0 328.81332 96.333336"
   sodipodi:docname="generalized cherry.ai.svg"
   inkscape:version="0.92.1 r15371"><metadata
     id="metadata8"><rdf:RDF><cc:Work
         rdf:about=""><dc:format>image/svg+xml</dc:format><dc:type
           rdf:resource="http://purl.org/dc/dcmitype/StillImage" /><dc:title></dc:title></cc:Work></rdf:RDF></metadata><defs
     id="defs6"><clipPath
       clipPathUnits="userSpaceOnUse"
       id="clipPath18"><path
         d="M 0,72.25 H 246.61 V 0 H 0 Z"
         id="path16"
         inkscape:connector-curvature="0" /></clipPath><clipPath
       clipPathUnits="userSpaceOnUse"
       id="clipPath138"><path
         d="M 0,72.25 H 246.61 V 0 H 0 Z"
         id="path136"
         inkscape:connector-curvature="0" /></clipPath></defs><sodipodi:namedview
     pagecolor="#ffffff"
     bordercolor="#666666"
     borderopacity="1"
     objecttolerance="10"
     gridtolerance="10"
     guidetolerance="10"
     inkscape:pageopacity="0"
     inkscape:pageshadow="2"
     inkscape:window-width="1600"
     inkscape:window-height="810"
     id="namedview4"
     showgrid="false"
     inkscape:zoom="4.0509307"
     inkscape:cx="164.40666"
     inkscape:cy="48.166668"
     inkscape:window-x="0"
     inkscape:window-y="0"
     inkscape:window-maximized="1"
     inkscape:current-layer="g10" /><g
     id="g10"
     inkscape:groupmode="layer"
     inkscape:label="generalized cherry"
     transform="matrix(1.3333333,0,0,-1.3333333,0,96.333333)"><g
       id="g12"><g
         id="g14"
         clip-path="url(#clipPath18)"><g
           id="g20"
           transform="translate(161.3613,18.0879)"><path
             d="m 0,0 c 0,1.627 -1.319,2.946 -2.946,2.946 -1.627,0 -2.947,-1.319 -2.947,-2.946 0,-1.627 1.32,-2.947 2.947,-2.947 C -1.319,-2.947 0,-1.627 0,0"
             style="fill:#f72b2b;fill-opacity:1;fill-rule:nonzero;stroke:none"
             id="path22"
             inkscape:connector-curvature="0" /></g><g
           id="g24"
           transform="translate(161.3613,18.0879)"><path
             d="m 0,0 c 0,1.627 -1.319,2.946 -2.946,2.946 -1.627,0 -2.947,-1.319 -2.947,-2.946 0,-1.627 1.32,-2.947 2.947,-2.947 C -1.319,-2.947 0,-1.627 0,0 Z"
             style="fill:none;stroke:#000000;stroke-width:1;stroke-linecap:butt;stroke-linejoin:miter;stroke-miterlimit:10;stroke-dasharray:none;stroke-opacity:1"
             id="path26"
             inkscape:connector-curvature="0" /></g><g
           id="g28"
           transform="translate(77.7705,18.4458)"><path
             d="m 0,0 c 0,1.627 -1.319,2.947 -2.946,2.947 -1.627,0 -2.947,-1.32 -2.947,-2.947 0,-1.627 1.32,-2.946 2.947,-2.946 C -1.319,-2.946 0,-1.627 0,0"
             style="fill:#f72b2b;fill-opacity:1;fill-rule:nonzero;stroke:none"
             id="path30"
             inkscape:connector-curvature="0" /></g><g
           id="g32"
           transform="translate(77.7705,18.4458)"><path
             d="m 0,0 c 0,1.627 -1.319,2.947 -2.946,2.947 -1.627,0 -2.947,-1.32 -2.947,-2.947 0,-1.627 1.32,-2.946 2.947,-2.946 C -1.319,-2.946 0,-1.627 0,0 Z"
             style="fill:none;stroke:#000000;stroke-width:1;stroke-linecap:butt;stroke-linejoin:miter;stroke-miterlimit:10;stroke-dasharray:none;stroke-opacity:1"
             id="path34"
             inkscape:connector-curvature="0" /></g><g
           id="g36"
           transform="translate(51.9639,18.2021)"><path
             d="m 0,0 c 0,1.627 -1.319,2.946 -2.947,2.946 -1.627,0 -2.946,-1.319 -2.946,-2.946 0,-1.627 1.319,-2.946 2.946,-2.946 C -1.319,-2.946 0,-1.627 0,0"
             style="fill:#f72b2b;fill-opacity:1;fill-rule:nonzero;stroke:none"
             id="path38"
             inkscape:connector-curvature="0" /></g><g
           id="g40"
           transform="translate(51.9639,18.2021)"><path
             d="m 0,0 c 0,1.627 -1.319,2.946 -2.947,2.946 -1.627,0 -2.946,-1.319 -2.946,-2.946 0,-1.627 1.319,-2.946 2.946,-2.946 C -1.319,-2.946 0,-1.627 0,0 Z"
             style="fill:none;stroke:#000000;stroke-width:1;stroke-linecap:butt;stroke-linejoin:miter;stroke-miterlimit:10;stroke-dasharray:none;stroke-opacity:1"
             id="path42"
             inkscape:connector-curvature="0" /></g><g
           id="g44"
           transform="translate(65.1558,41.8364)"><path
             d="m 0,0 c 0,1.627 -1.319,2.946 -2.946,2.946 -1.628,0 -2.947,-1.319 -2.947,-2.946 0,-1.627 1.319,-2.946 2.947,-2.946 C -1.319,-2.946 0,-1.627 0,0"
             style="fill:#f72b2b;fill-opacity:1;fill-rule:nonzero;stroke:none"
             id="path46"
             inkscape:connector-curvature="0" /></g><g
           id="g48"
           transform="translate(65.1558,41.8364)"><path
             d="m 0,0 c 0,1.627 -1.319,2.946 -2.946,2.946 -1.628,0 -2.947,-1.319 -2.947,-2.946 0,-1.627 1.319,-2.946 2.947,-2.946 C -1.319,-2.946 0,-1.627 0,0 Z"
             style="fill:none;stroke:#000000;stroke-width:1;stroke-linecap:butt;stroke-linejoin:miter;stroke-miterlimit:10;stroke-dasharray:none;stroke-opacity:1"
             id="path50"
             inkscape:connector-curvature="0" /></g><g
           id="g52"
           transform="translate(182.2637,20.3335)"><path
             d="m 0,0 c 0,1.627 -1.318,2.947 -2.946,2.947 -1.627,0 -2.947,-1.32 -2.947,-2.947 0,-1.627 1.32,-2.946 2.947,-2.946 C -1.318,-2.946 0,-1.627 0,0"
             style="fill:#f72b2b;fill-opacity:1;fill-rule:nonzero;stroke:none"
             id="path54"
             inkscape:connector-curvature="0" /></g><g
           id="g56"
           transform="translate(182.2637,20.3335)"><path
             d="m 0,0 c 0,1.627 -1.318,2.947 -2.946,2.947 -1.627,0 -2.947,-1.32 -2.947,-2.947 0,-1.627 1.32,-2.946 2.947,-2.946 C -1.318,-2.946 0,-1.627 0,0 Z"
             style="fill:none;stroke:#000000;stroke-width:1;stroke-linecap:butt;stroke-linejoin:miter;stroke-miterlimit:10;stroke-dasharray:none;stroke-opacity:1"
             id="path58"
             inkscape:connector-curvature="0" /></g><g
           id="g60"
           transform="translate(143.54,26.4453)"><path
             d="M 0,0 C 0.479,1.555 -0.393,3.204 -1.947,3.684 -3.502,4.163 -5.151,3.292 -5.631,1.736 -6.11,0.182 -5.238,-1.468 -3.684,-1.947 -2.129,-2.427 -0.479,-1.555 0,0"
             style="fill:#f72b2b;fill-opacity:1;fill-rule:nonzero;stroke:none"
             id="path62"
             inkscape:connector-curvature="0" /></g><g
           id="g64"
           transform="translate(143.54,26.4453)"><path
             d="M 0,0 C 0.479,1.555 -0.393,3.204 -1.947,3.684 -3.502,4.163 -5.151,3.292 -5.631,1.736 -6.11,0.182 -5.238,-1.468 -3.684,-1.947 -2.129,-2.427 -0.479,-1.555 0,0 Z"
             style="fill:none;stroke:#000000;stroke-width:1;stroke-linecap:butt;stroke-linejoin:miter;stroke-miterlimit:10;stroke-dasharray:none;stroke-opacity:1"
             id="path66"
             inkscape:connector-curvature="0" /></g><g
           id="g68"
           transform="translate(172.457,17.4414)"><path
             d="m 0,0 c 0,1.627 -1.319,2.946 -2.947,2.946 -1.627,0 -2.947,-1.319 -2.947,-2.946 0,-1.627 1.32,-2.947 2.947,-2.947 C -1.319,-2.947 0,-1.627 0,0"
             style="fill:#f72b2b;fill-opacity:1;fill-rule:nonzero;stroke:none"
             id="path70"
             inkscape:connector-curvature="0" /></g><g
           id="g72"
           transform="translate(172.457,17.4414)"><path
             d="m 0,0 c 0,1.627 -1.319,2.946 -2.947,2.946 -1.627,0 -2.947,-1.319 -2.947,-2.946 0,-1.627 1.32,-2.947 2.947,-2.947 C -1.319,-2.947 0,-1.627 0,0 Z"
             style="fill:none;stroke:#000000;stroke-width:1;stroke-linecap:butt;stroke-linejoin:miter;stroke-miterlimit:10;stroke-dasharray:none;stroke-opacity:1"
             id="path74"
             inkscape:connector-curvature="0" /></g><g
           id="g76"
           transform="translate(59.6313,40.4111)"><path
             d="M 0,0 -10.614,-19.711"
             style="fill:#ffffff;fill-opacity:1;fill-rule:nonzero;stroke:#000000;stroke-width:1;stroke-linecap:butt;stroke-linejoin:miter;stroke-miterlimit:10;stroke-dasharray:none;stroke-opacity:1"
             id="path78"
             inkscape:connector-curvature="0" /></g><g
           id="g80"
           transform="translate(64.1719,40.4111)"><path
             d="M 0,0 10.652,-19.019"
             style="fill:#ffffff;fill-opacity:1;fill-rule:nonzero;stroke:#000000;stroke-width:1;stroke-linecap:butt;stroke-linejoin:miter;stroke-miterlimit:10;stroke-dasharray:none;stroke-opacity:1"
             id="path82"
             inkscape:connector-curvature="0" /></g><g
           id="g84"
           transform="translate(190.5186,27.0669)"><path
             d="m 0,0 c -0.477,1.556 -2.125,2.43 -3.681,1.953 -1.555,-0.477 -2.43,-2.125 -1.953,-3.681 0.477,-1.555 2.125,-2.43 3.681,-1.953 C -0.397,-3.204 0.478,-1.556 0,0"
             style="fill:#f72b2b;fill-opacity:1;fill-rule:nonzero;stroke:none"
             id="path86"
             inkscape:connector-curvature="0" /></g><g
           id="g88"
           transform="translate(190.5186,27.0669)"><path
             d="m 0,0 c -0.477,1.556 -2.125,2.43 -3.681,1.953 -1.555,-0.477 -2.43,-2.125 -1.953,-3.681 0.477,-1.555 2.125,-2.43 3.681,-1.953 C -0.397,-3.204 0.478,-1.556 0,0 Z"
             style="fill:none;stroke:#000000;stroke-width:1;stroke-linecap:butt;stroke-linejoin:miter;stroke-miterlimit:10;stroke-dasharray:none;stroke-opacity:1"
             id="path90"
             inkscape:connector-curvature="0" /></g><g
           id="g92"
           transform="translate(165.0547,40.7778)"><path
             d="M 0,0 4.455,-20.39"
             style="fill:none;stroke:#000000;stroke-width:1;stroke-linecap:butt;stroke-linejoin:miter;stroke-miterlimit:10;stroke-dasharray:none;stroke-opacity:1"
             id="path94"
             inkscape:connector-curvature="0" /></g><g
           id="g96"
           transform="translate(165,39.6665)"><path
             d="M 0,0 -21.615,-11.17"
             style="fill:none;stroke:#000000;stroke-width:1;stroke-linecap:butt;stroke-linejoin:miter;stroke-miterlimit:10;stroke-dasharray:none;stroke-opacity:1"
             id="path98"
             inkscape:connector-curvature="0" /></g><g
           id="g100"
           transform="translate(165.0547,40.7778)"><path
             d="M 0,0 -5.888,-19.385"
             style="fill:none;stroke:#000000;stroke-width:1;stroke-linecap:butt;stroke-linejoin:miter;stroke-miterlimit:10;stroke-dasharray:none;stroke-opacity:1"
             id="path102"
             inkscape:connector-curvature="0" /></g><g
           id="g104"
           transform="translate(165.0547,40.7778)"><path
             d="M 0,0 12.445,-17.498"
             style="fill:none;stroke:#000000;stroke-width:1;stroke-linecap:butt;stroke-linejoin:miter;stroke-miterlimit:10;stroke-dasharray:none;stroke-opacity:1"
             id="path106"
             inkscape:connector-curvature="0" /></g><g
           id="g108"
           transform="translate(165.0547,40.7778)"><path
             d="M 0,0 20.171,-12.979"
             style="fill:none;stroke:#000000;stroke-width:1;stroke-linecap:butt;stroke-linejoin:miter;stroke-miterlimit:10;stroke-dasharray:none;stroke-opacity:1"
             id="path110"
             inkscape:connector-curvature="0" /></g><g
           id="g112"
           transform="translate(168.4141,38.8901)"><path
             d="m 0,0 c 0,1.627 -1.319,2.946 -2.946,2.946 -1.628,0 -2.947,-1.319 -2.947,-2.946 0,-1.627 1.319,-2.947 2.947,-2.947 C -1.319,-2.947 0,-1.627 0,0"
             style="fill:#f72b2b;fill-opacity:1;fill-rule:nonzero;stroke:none"
             id="path114"
             inkscape:connector-curvature="0" /></g><g
           id="g116"
           transform="translate(168.4141,38.8901)"><path
             d="m 0,0 c 0,1.627 -1.319,2.946 -2.946,2.946 -1.628,0 -2.947,-1.319 -2.947,-2.946 0,-1.627 1.319,-2.947 2.947,-2.947 C -1.319,-2.947 0,-1.627 0,0 Z"
             style="fill:none;stroke:#000000;stroke-width:1;stroke-linecap:butt;stroke-linejoin:miter;stroke-miterlimit:10;stroke-dasharray:none;stroke-opacity:1"
             id="path118"
             inkscape:connector-curvature="0" /></g></g></g><g
       id="g132"><g
         id="g134"
         clip-path="url(#clipPath138)"><g
           id="g140"
           transform="translate(151.3135,20.7866)"><path
             d="M 0,0 C 0.058,0.416 -0.185,0.793 -0.54,0.843 -0.896,0.893 -1.231,0.595 -1.29,0.179 -1.348,-0.237 -1.105,-0.614 -0.75,-0.664 -0.394,-0.713 -0.059,-0.416 0,0"
             style="fill:#000000;fill-opacity:1;fill-rule:nonzero;stroke:none"
             id="path142"
             inkscape:connector-curvature="0" /></g><g
           id="g144"
           transform="translate(151.3135,20.7866)"><path
             d="M 0,0 C 0.058,0.416 -0.185,0.793 -0.54,0.843 -0.896,0.893 -1.231,0.595 -1.29,0.179 -1.348,-0.237 -1.105,-0.614 -0.75,-0.664 -0.394,-0.713 -0.059,-0.416 0,0 Z"
             style="fill:none;stroke:#000000;stroke-width:1;stroke-linecap:butt;stroke-linejoin:miter;stroke-miterlimit:10;stroke-dasharray:none;stroke-opacity:1"
             id="path146"
             inkscape:connector-curvature="0" /></g><g
           id="g148"
           transform="translate(149.0879,21.8638)"><path
             d="M 0,0 C 0.058,0.416 -0.185,0.793 -0.54,0.843 -0.896,0.892 -1.231,0.595 -1.29,0.179 -1.348,-0.237 -1.105,-0.614 -0.75,-0.664 -0.394,-0.713 -0.058,-0.416 0,0"
             style="fill:#000000;fill-opacity:1;fill-rule:nonzero;stroke:none"
             id="path150"
             inkscape:connector-curvature="0" /></g><g
           id="g152"
           transform="translate(149.0879,21.8638)"><path
             d="M 0,0 C 0.058,0.416 -0.185,0.793 -0.54,0.843 -0.896,0.892 -1.231,0.595 -1.29,0.179 -1.348,-0.237 -1.105,-0.614 -0.75,-0.664 -0.394,-0.713 -0.058,-0.416 0,0 Z"
             style="fill:none;stroke:#000000;stroke-width:1;stroke-linecap:butt;stroke-linejoin:miter;stroke-miterlimit:10;stroke-dasharray:none;stroke-opacity:1"
             id="path154"
             inkscape:connector-curvature="0" /></g><g
           id="g156"
           transform="translate(146.9834,23.1582)"><path
             d="M 0,0 C 0.058,0.416 -0.185,0.793 -0.54,0.843 -0.896,0.893 -1.231,0.595 -1.289,0.179 -1.348,-0.237 -1.105,-0.614 -0.749,-0.664 -0.394,-0.713 -0.058,-0.416 0,0"
             style="fill:#000000;fill-opacity:1;fill-rule:nonzero;stroke:none"
             id="path158"
             inkscape:connector-curvature="0" /></g><g
           id="g160"
           transform="translate(146.9834,23.1582)"><path
             d="M 0,0 C 0.058,0.416 -0.185,0.793 -0.54,0.843 -0.896,0.893 -1.231,0.595 -1.289,0.179 -1.348,-0.237 -1.105,-0.614 -0.749,-0.664 -0.394,-0.713 -0.058,-0.416 0,0 Z"
             style="fill:none;stroke:#000000;stroke-width:1;stroke-linecap:butt;stroke-linejoin:miter;stroke-miterlimit:10;stroke-dasharray:none;stroke-opacity:1"
             id="path162"
             inkscape:connector-curvature="0" /></g></g></g><text
       xml:space="preserve"
       style="font-style:normal;font-weight:normal;font-size:30px;line-height:1.25;font-family:sans-serif;letter-spacing:0px;word-spacing:0px;fill:#000000;fill-opacity:1;stroke:none;stroke-width:0.75"
       x="153.18381"
       y="-53.506226"
       id="text3836"
       transform="scale(1,-1)"><tspan
         sodipodi:role="line"
         id="tspan3834"
         x="153.18381"
         y="-53.506226"
         style="font-size:12px;stroke-width:0.75">Star</tspan></text>
<text
       xml:space="preserve"
       style="font-style:normal;font-weight:normal;font-size:29.96247673px;line-height:1.25;font-family:sans-serif;letter-spacing:0px;word-spacing:0px;fill:#000000;fill-opacity:1;stroke:none;stroke-width:0.74906194"
       x="42.344635"
       y="-53.555187"
       id="text3840"
       transform="scale(1.0012523,-0.99874926)"><tspan
         sodipodi:role="line"
         id="tspan3838"
         x="42.344635"
         y="-53.555187"
         style="font-size:12.00000095px;stroke-width:0.74906194">Cherry</tspan></text>
</g></svg>